<?xml version="1.0" standalone="no"?>
<!DOCTYPE svg PUBLIC "-//W3C//DTD SVG 20010904//EN"
 "http://www.w3.org/TR/2001/REC-SVG-20010904/DTD/svg10.dtd">
<svg version="1.0" xmlns="http://www.w3.org/2000/svg"
 width="287.000000pt" height="300.000000pt" viewBox="0 0 287.000000 300.000000"
 preserveAspectRatio="xMidYMid meet">
<metadata>
Created by potrace 1.16, written by Peter Selinger 2001-2019
</metadata>
<g transform="translate(0.000000,300.000000) scale(0.100000,-0.100000)"
fill="#000000" stroke="none">
<path d="M342 1890 l3 -1111 945 0 c520 1 948 1 953 1 4 0 7 14 7 30 0 17 -5
30 -10 30 -6 0 -148 104 -317 230 l-306 230 281 0 282 0 0 850 0 850 -920 0
-920 0 2 -1110z m1778 260 l0 -790 -855 0 -855 0 0 790 0 790 855 0 855 0 0
-790z m-303 -1080 l307 -230 -857 0 -857 0 0 230 0 230 550 0 549 0 308 -230z"/>
<path d="M1875 2653 c-44 -43 -134 -129 -200 -193 -66 -64 -172 -163 -235
-221 l-115 -104 -3 69 c-2 48 1 72 10 77 10 7 10 11 0 21 -7 7 -12 42 -12 95
l0 83 -50 0 c-27 0 -50 -4 -50 -10 0 -5 -6 -7 -14 -4 -9 4 -65 -65 -169 -208
-235 -325 -489 -689 -484 -695 5 -4 135 115 499 459 86 81 158 148 160 148 4
0 1 -127 -4 -137 -2 -4 -1 -46 2 -93 l5 -85 63 -1 63 -2 201 277 c111 152 251
343 311 425 60 81 111 154 114 162 11 29 -14 11 -92 -63z"/>
<path d="M1355 608 c-2 -7 -5 -145 -7 -305 l-4 -293 763 0 763 0 0 48 0 48
-85 47 -86 47 -544 0 -545 0 0 53 c0 28 -3 76 -6 105 l-7 52 482 0 481 0 0 59
0 60 -60 33 c-33 18 -60 38 -60 45 0 19 -1079 19 -1085 1z m1100 -58 l70 -40
-493 0 -494 0 4 -169 3 -168 29 -13 c22 -10 31 -10 34 -2 3 9 139 12 540 12
l537 -1 55 -29 55 -29 -707 -1 -708 0 0 240 0 240 503 0 502 -1 70 -39z"/>
<path d="M237 513 c-30 -54 -85 -154 -123 -223 -37 -69 -78 -142 -91 -162 -15
-25 -23 -53 -23 -83 l0 -45 605 0 605 0 0 28 c0 15 -3 57 -7 95 l-6 67 -448 0
c-247 0 -449 2 -449 5 0 3 23 50 50 105 l50 100 405 0 405 0 -3 105 -2 105
-457 0 -457 0 -54 -97z m933 27 l0 -40 -415 0 c-409 0 -415 0 -415 -20 0 -11
-32 -83 -70 -161 -39 -77 -68 -144 -65 -149 4 -6 192 -10 486 -10 l479 0 0
-30 0 -30 -560 0 -561 0 12 22 c12 23 238 436 246 451 2 4 197 7 434 7 l429 0
0 -40z"/>
</g>
</svg>
